<svg xmlns="http://www.w3.org/2000/svg" width="12" height="15.344" viewBox="0 0 12 15.344">
  <defs>
    <style>
      .cls-1 {
        fill: #8c65ce;
        fill-rule: evenodd;
      }
    </style>
  </defs>
  <path id="ic" class="cls-1" d="M468.993,480.074a1.526,1.526,0,0,0-.762,2.848v1.764h1.523v-1.764A1.526,1.526,0,0,0,468.993,480.074Zm0-5.894a2.328,2.328,0,0,0-2.326,2.326v1.507h4.653v-1.507A2.329,2.329,0,0,0,468.993,474.18Zm4.51,12.813h-9.021A1.535,1.535,0,0,1,463,485.267v-5.754a1.3,1.3,0,0,1,1.128-1.463v-1.544a4.865,4.865,0,0,1,9.73,0v1.544a1.3,1.3,0,0,1,1.127,1.463v5.754h0A1.535,1.535,0,0,1,473.5,486.993Z" transform="translate(-463 -471.656)"/>
</svg>
