<svg xmlns="http://www.w3.org/2000/svg" width="8.5" height="5.063" viewBox="0 0 8.5 5.063">
  <defs>
    <style>
      .cls-1 {
        fill: #8c65ce;
        fill-rule: evenodd;
      }
    </style>
  </defs>
  <path id="arw" class="cls-1" d="M1345.58,737.434v0a0.018,0.018,0,0,1-.01-0.019l-3.4-3.4a0.824,0.824,0,0,1,0-1.163v-0.006a0.833,0.833,0,0,1,1.17,0l2.83,2.832,2.83-2.832a0.821,0.821,0,0,1,1.16,0l0.01,0.006a0.824,0.824,0,0,1,0,1.163l-3.4,3.4c0,0.006-.01.014-0.01,0.019l-0.01,0a0.81,0.81,0,0,1-.58.241A0.85,0.85,0,0,1,1345.58,737.434Z" transform="translate(-1341.94 -732.625)"/>
</svg>
