<svg xmlns="http://www.w3.org/2000/svg" width="14.468" height="16.312" viewBox="0 0 14.468 16.312">
  <defs>
    <style>
      .cls-1 {
        fill: #8c65ce;
        fill-rule: evenodd;
      }
    </style>
  </defs>
  <path id="ic" class="cls-1" d="M469.088,553.264a7.238,7.238,0,0,1-4.206-13.128A1.143,1.143,0,1,1,466.211,542a4.953,4.953,0,1,0,5.754,0,1.143,1.143,0,0,1,1.33-1.859A7.238,7.238,0,0,1,469.088,553.264Zm0-7.562a1.142,1.142,0,0,1-1.142-1.143v-6.476a1.143,1.143,0,1,1,2.285,0v6.476A1.143,1.143,0,0,1,469.088,545.7Z" transform="translate(-461.844 -536.938)"/>
</svg>
