<svg xmlns="http://www.w3.org/2000/svg" width="15.44" height="12.876" viewBox="0 0 15.44 12.876">
  <defs>
    <style>
      .cls-1 {
        fill: #fff;
        fill-rule: evenodd;
      }
    </style>
  </defs>
  <path id="b_" data-name="b!" class="cls-1" d="M1309.31,430.956a3.044,3.044,0,0,0-2.14-.962,3.525,3.525,0,0,0,1.78-.979,2.578,2.578,0,0,0,.55-1.737,3.15,3.15,0,0,0-.37-1.534,2.811,2.811,0,0,0-1.09-1.052,4.6,4.6,0,0,0-1.48-.487,21.888,21.888,0,0,0-3.04-.136H1300v12.856h3.63a23.744,23.744,0,0,0,3.16-.147,5.088,5.088,0,0,0,1.61-.5,2.916,2.916,0,0,0,1.24-1.211,3.671,3.671,0,0,0,.44-1.816A3.315,3.315,0,0,0,1309.31,430.956Zm-6.06-4.04h0.76a3.525,3.525,0,0,1,1.75.294,1.127,1.127,0,0,1,.45,1.018,1.057,1.057,0,0,1-.48.985,3.8,3.8,0,0,1-1.78.283h-0.7v-2.58h0Zm2.99,7.372a3.577,3.577,0,0,1-1.76.311h-1.23v-2.8h1.28a3.33,3.33,0,0,1,1.75.322,1.282,1.282,0,0,1,.48,1.132,1.056,1.056,0,0,1-.52,1.041v-0.006Zm7.56-.617a1.63,1.63,0,1,0,1.63,1.63h0A1.63,1.63,0,0,0,1313.8,433.671Zm-1.41-9.6h2.83v8.574h-2.83v-8.574Z" transform="translate(-1300 -424.062)"/>
</svg>
