<svg xmlns="http://www.w3.org/2000/svg" width="10.844" height="10.469" viewBox="0 0 10.844 10.469">
  <defs>
    <style>
      .cls-1 {
        fill: #fff;
        fill-rule: evenodd;
      }
    </style>
  </defs>
  <path id="like" class="cls-1" d="M21.565,12.9a3.331,3.331,0,0,0-2.225-.824c-0.8,0-1.561.826-2.161,1.318-0.6-.494-1.359-1.321-2.16-1.321a3.329,3.329,0,0,0-2.228.828,3.159,3.159,0,0,0-1.032,2.4c0,1.911,1.718,3.59,3.894,5.716,0.292,0.285.594,0.58,0.9,0.883l0.626,0.621,0.626-.621c0.305-.3.607-0.6,0.9-0.883,2.175-2.126,3.894-3.8,3.894-5.715A3.155,3.155,0,0,0,21.565,12.9Z" transform="translate(-11.75 -12.063)"/>
</svg>
