<svg xmlns="http://www.w3.org/2000/svg" width="21" height="20" viewBox="0 0 21 20">
  <defs>
    <style>
      .cls-1 {
        fill: #fff;
        fill-rule: evenodd;
      }
    </style>
  </defs>
  <path id="ic" class="cls-1" d="M57.5,201h-13a1.5,1.5,0,0,0-1.5,1.5V211H39.5a1.5,1.5,0,0,0-1.5,1.5V218a3,3,0,0,0,3,3H54.5a4.5,4.5,0,0,0,4.5-4.5v-14A1.5,1.5,0,0,0,57.5,201ZM43,217.5V218a2,2,0,1,1-4,0v-5.5a0.5,0.5,0,0,1,.5-0.5H43v5.5ZM56,208a1,1,0,0,1-1,1H47a1,1,0,0,1-1-1v-3a1,1,0,0,1,1-1h8a1,1,0,0,1,1,1v3Zm-0.5,4h-9a0.5,0.5,0,1,1,0-1h9A0.5,0.5,0,0,1,55.5,212Zm0,3h-9a0.5,0.5,0,1,1,0-1h9A0.5,0.5,0,0,1,55.5,215Zm-3,3h-6a0.5,0.5,0,1,1,0-1h6A0.5,0.5,0,0,1,52.5,218Z" transform="translate(-38 -201)"/>
</svg>
