<svg xmlns="http://www.w3.org/2000/svg" width="19" height="13.969" viewBox="0 0 19 13.969">
  <defs>
    <style>
      .cls-1 {
        fill: #fff;
        fill-rule: evenodd;
      }
    </style>
  </defs>
  <path id="ic" class="cls-1" d="M1526.01,55.43a1.61,1.61,0,0,0,1.65,1.58h15.69a1.608,1.608,0,0,0,1.64-1.58V44.6a1.608,1.608,0,0,0-1.64-1.58h-15.69a1.61,1.61,0,0,0-1.65,1.58V55.43Zm5.71-5.447-3.77-3.637a0.751,0.751,0,0,1,0-1.086,0.821,0.821,0,0,1,1.13,0l6.02,5.773a0.662,0.662,0,0,0,.89,0l6.02-5.773a0.834,0.834,0,0,1,1.14,0,0.751,0.751,0,0,1,0,1.086l-3.78,3.637,2.62,2.509a0.734,0.734,0,0,1,0,1.085,0.821,0.821,0,0,1-1.13,0l-2.62-2.5-1.39,1.354a1.924,1.924,0,0,1-1.3.506,1.9,1.9,0,0,1-1.31-.517c-0.22-.205-1.39-1.343-1.39-1.343l-2.61,2.5a0.834,0.834,0,0,1-1.14,0,0.75,0.75,0,0,1,0-1.085Z" transform="translate(-1526 -43.031)"/>
</svg>
