<svg xmlns="http://www.w3.org/2000/svg" width="166.124" height="151.688" viewBox="0 0 166.124 151.688">
  <defs>
    <style>
      .cls-1 {
        fill: #fff;
        fill-rule: evenodd;
      }
    </style>
  </defs>
  <path id="logo" class="cls-1" d="M682.005,497.037a1.069,1.069,0,1,1,1.053-1.069A1.064,1.064,0,0,1,682.005,497.037Zm-2.662-17.4a10.409,10.409,0,0,1-4.148.865c-4.924,0-6.747-3.19-6.747-7.156V463h-1.732a1.847,1.847,0,0,1,0-3.692h1.732V456.07a2.3,2.3,0,0,1,2.325-2.279,2.336,2.336,0,0,1,2.37,2.279v3.237h5.2a1.847,1.847,0,0,1,0,3.692h-5.2v9.937c0,2.417.821,3.648,2.918,3.648,2.006,0,2.643-1.5,4.011-1.5a1.721,1.721,0,0,1,1.778,1.869C681.85,478.088,680.71,479,679.343,479.638Zm-10.54,9.353a3.77,3.77,0,0,1,2.733,1.052,3.5,3.5,0,0,1,.934,2.479,0.879,0.879,0,0,1-.883.967h-4.855a2.412,2.412,0,0,0,.577,1.41,2.329,2.329,0,0,0,1.833.763,3.711,3.711,0,0,0,1.546-.339A2.207,2.207,0,0,1,671.5,495a0.684,0.684,0,0,1,.646.713,1.033,1.033,0,0,1-.8.866,5.914,5.914,0,0,1-2.326.458,4.05,4.05,0,0,1-3.056-1.188,4.176,4.176,0,0,1-1.069-2.937,4.028,4.028,0,0,1,1.069-2.818A3.8,3.8,0,0,1,668.8,488.991Zm1.969,3.31a2.091,2.091,0,0,0-.492-1.341,1.992,1.992,0,0,0-1.46-.577,2.108,2.108,0,0,0-1.579.611,2.348,2.348,0,0,0-.509,1.307h4.04Zm-9.434-21.325H648.3a6.475,6.475,0,0,0,1.55,3.784,6.25,6.25,0,0,0,4.923,2.051,9.968,9.968,0,0,0,4.148-.911,5.948,5.948,0,0,1,2.188-.866,1.833,1.833,0,0,1,1.732,1.914c0,1-.729,1.686-2.142,2.325a15.907,15.907,0,0,1-6.245,1.23,10.877,10.877,0,0,1-8.206-3.19,11.22,11.22,0,0,1-2.871-7.886,10.817,10.817,0,0,1,2.871-7.568,11.1,11.1,0,0,1,14.952-.136,9.393,9.393,0,0,1,2.507,6.655A2.361,2.361,0,0,1,661.338,470.976Zm-3.51-6.792a5.343,5.343,0,0,0-3.921-1.55,5.649,5.649,0,0,0-4.238,1.642,6.284,6.284,0,0,0-1.368,3.51H659.15A5.616,5.616,0,0,0,657.828,464.184ZM643.6,365.242c-0.088.5-.175,1-0.263,1.507l-0.414,1.44-0.54,1.361a18.511,18.511,0,0,1-3.042,4.623,22.44,22.44,0,0,1-2.621,2.5,11.02,11.02,0,0,1,.992,1.032,15.985,15.985,0,0,1,1.761,2.29,24.882,24.882,0,0,1,3.446,10.04,78.118,78.118,0,0,1,.688,9.483q0.025,2.286.05,4.571l0.006,2.265q0,1.126,0,2.255v0.025c-0.019,2.818-.03,5.635-0.179,8.5a77.723,77.723,0,0,1-.837,8.734c-0.125.746-.289,1.5-0.434,2.256s-0.393,1.534-.592,2.3c-0.236.776-.539,1.57-0.827,2.352a20.209,20.209,0,0,1-1.234,2.4,12.311,12.311,0,0,1-4.29,4.31c-0.484.252-.977,0.491-1.473,0.715a13.138,13.138,0,0,1-1.522.455l-0.769.187-0.739.075-1.481.108h-0.039a10.741,10.741,0,0,1-3.865-.793,13.306,13.306,0,0,1-2.981-1.776,21.762,21.762,0,0,1-4.03-4.263,46.037,46.037,0,0,1-2.87-4.423c-0.428-.74-0.833-1.481-1.231-2.221l-1.148-2.22c-0.743-1.478-1.45-2.953-2.142-4.42l-1.026-2.193-1.013-2.174q-0.507-1.074-1.013-2.148c-0.029-.059-0.057-0.118-0.086-0.178-0.257.313-.5,0.629-0.777,0.937a17.152,17.152,0,0,1-3.642,3.156,10.773,10.773,0,0,1-5.651,1.794h-0.043a10.779,10.779,0,0,1-5.652-1.794,17.121,17.121,0,0,1-3.641-3.156c-0.274-.305-0.515-0.618-0.77-0.927-0.368.772-.739,1.533-1.106,2.316-1.348,2.883-2.7,5.832-4.182,8.787a61.279,61.279,0,0,1-5.248,8.864,21.792,21.792,0,0,1-4.03,4.263,13.329,13.329,0,0,1-2.981,1.776,10.741,10.741,0,0,1-3.865.793h-0.039a11.578,11.578,0,0,1-10.274-5.85,19.915,19.915,0,0,1-1.234-2.4c-0.288-.782-0.592-1.576-0.827-2.352-0.2-.765-0.434-1.544-0.592-2.3s-0.309-1.51-.434-2.256a114.735,114.735,0,0,1-1.016-17.236v-0.025a151.153,151.153,0,0,1,.631-17.78,27.518,27.518,0,0,1,2.858-9.64,17.57,17.57,0,0,1,1.481-2.317,24.515,24.515,0,0,1,1.835-2.085c0.044-.04.09-0.077,0.135-0.117a22.467,22.467,0,0,1-2.618-2.5,18.535,18.535,0,0,1-3.041-4.623,14.224,14.224,0,0,1-1.309-5.856c0-.011,0-0.023,0-0.034a15.176,15.176,0,0,1,1.027-5.486,14.107,14.107,0,0,1,7.85-7.96,14.774,14.774,0,0,1,5.525-1.071h0.034a14.774,14.774,0,0,1,5.525,1.071,14.107,14.107,0,0,1,7.851,7.959,15.174,15.174,0,0,1,1.026,5.486v0.035a14.239,14.239,0,0,1-1.309,5.855,18.517,18.517,0,0,1-3.041,4.623,22.422,22.422,0,0,1-2.506,2.4,28.833,28.833,0,0,1,2.8,2.889,52.722,52.722,0,0,1,5.592,8.336c1.576,2.822,2.975,5.646,4.355,8.411l1.026,2.037c0.465-.583.979-1.189,1.606-1.836a16.751,16.751,0,0,1,3.136-2.56,10.727,10.727,0,0,1,5.444-1.667,10.312,10.312,0,0,1,2.432.348l0.747,0.229a8.315,8.315,0,0,1,1.35.583,7.768,7.768,0,0,1,1.193.689,16.559,16.559,0,0,1,2.012,1.552c0.569,0.547,1.142,1.1,1.625,1.67,0.3,0.325.568,0.656,0.83,0.988l1.024-2.033c1.379-2.765,2.778-5.589,4.355-8.411a52.722,52.722,0,0,1,5.592-8.336l0.857-1,0.957-.963c0.3-.322.633-0.631,0.977-0.932a22.545,22.545,0,0,1-2.5-2.4,18.492,18.492,0,0,1-3.042-4.623,14.239,14.239,0,0,1-1.308-5.855c0-.012,0-0.023,0-0.035a15.176,15.176,0,0,1,1.027-5.486,14.1,14.1,0,0,1,7.85-7.959,14.783,14.783,0,0,1,5.526-1.071h0.033a15,15,0,0,1,6.726,1.627,14.325,14.325,0,0,1,1.691,1.042,13.289,13.289,0,0,1,1.539,1.264,14.183,14.183,0,0,1,1.342,1.473A12.952,12.952,0,0,1,641.7,356.2a14.88,14.88,0,0,1,.884,1.774,15.418,15.418,0,0,1,.609,1.868,15.669,15.669,0,0,1,.493,3.823v0.034Q643.643,364.468,643.6,365.242ZM572.153,361.1a6.153,6.153,0,0,0-1.342-2.08,6.075,6.075,0,0,0-2.059-1.374,6.737,6.737,0,0,0-2.518-.482h-0.016a6.741,6.741,0,0,0-2.518.482,6.082,6.082,0,0,0-2.059,1.375A6.146,6.146,0,0,0,560.3,361.1a7.158,7.158,0,0,0-.475,2.569v0.015a6.213,6.213,0,0,0,.6,2.57,10.613,10.613,0,0,0,1.738,2.608,15.142,15.142,0,0,0,4.064,3.206c0.021-.011.041-0.019,0.062-0.031a15.293,15.293,0,0,0,1.451-.908,14.96,14.96,0,0,0,2.551-2.267,10.576,10.576,0,0,0,1.739-2.609,6.221,6.221,0,0,0,.6-2.569v-0.015A7.153,7.153,0,0,0,572.153,361.1Zm10.43,45q-0.555-1.058-1.111-2.114l-2.112-4.193c-1.381-2.771-2.733-5.492-4.176-8.071a45.117,45.117,0,0,0-4.709-7.066,16.976,16.976,0,0,0-4.154-3.672c-0.3.188-.584,0.393-0.883,0.574-0.467.3-.8,0.682-1.228,1a10.533,10.533,0,0,0-1.848,2.476,19.809,19.809,0,0,0-1.946,6.846,146.218,146.218,0,0,0-.562,16.731v0.024a108.022,108.022,0,0,0,.909,15.933,18.465,18.465,0,0,0,2.009,6.414,3.624,3.624,0,0,0,3.449,2.027h0.01a2.9,2.9,0,0,0,.814-0.181,5.389,5.389,0,0,0,1.125-.695A14.047,14.047,0,0,0,570.7,429.4a53.888,53.888,0,0,0,4.516-7.678c1.394-2.774,2.715-5.655,4.081-8.579,0.684-1.462,1.379-2.935,2.11-4.416q0.564-1.113,1.129-2.227c0.044-.084.089-0.168,0.134-0.252C582.639,406.2,582.611,406.147,582.583,406.1Zm20.431-.978c-0.3-.464-0.612-0.91-0.931-1.341-0.325-.415-0.645-0.851-0.986-1.212-0.331-.4-0.676-0.712-1.011-1.048a8.706,8.706,0,0,0-.985-0.759,1.749,1.749,0,0,0-.443-0.258,1.5,1.5,0,0,0-.383-0.171,4.13,4.13,0,0,0-.527-0.125,3.11,3.11,0,0,0-1.236.474,8.977,8.977,0,0,0-1.609,1.338,19.83,19.83,0,0,0-2.42,3.1c-0.263.406-.482,0.769-0.675,1.1,0.215,0.356.43,0.711,0.663,1.066a20.647,20.647,0,0,0,1.915,2.5,9.326,9.326,0,0,0,1.989,1.761,3.076,3.076,0,0,0,1.37.543h0.006a3.074,3.074,0,0,0,1.371-.543,9.347,9.347,0,0,0,1.988-1.761,20.652,20.652,0,0,0,1.916-2.5c0.231-.353.445-0.706,0.659-1.061C603.466,405.847,603.246,405.476,603.014,405.117Zm17.3-13.4c-1.442,2.579-2.794,5.3-4.175,8.071l-2.113,4.193-1.11,2.114c-0.028.052-.057,0.1-0.085,0.154l0.134,0.252q0.564,1.113,1.129,2.227l1.072,2.215,1.038,2.2q0.509,1.092,1.018,2.184t1.012,2.161c0.675,1.433,1.354,2.848,2.05,4.234q0.531,1.024,1.061,2.051c0.361,0.671.725,1.337,1.1,1.984A38.457,38.457,0,0,0,624.8,429.4a14.05,14.05,0,0,0,2.529,2.728,5.363,5.363,0,0,0,1.125.695,2.888,2.888,0,0,0,.814.181h0.01q0.3-.042.591-0.058l0.3-.012,0.235-.078c0.151-.056.333-0.059,0.471-0.124a2.173,2.173,0,0,1,.395-0.2,4.333,4.333,0,0,0,1.46-1.558,18.486,18.486,0,0,0,2.009-6.414,70.206,70.206,0,0,0,.739-7.811c0.14-2.669.152-5.4,0.17-8.122v-0.024q0-1.124,0-2.246l-0.006-2.238-0.048-4.432a70.473,70.473,0,0,0-.6-8.466,17.148,17.148,0,0,0-2.255-6.887,10.632,10.632,0,0,0-2.154-2.386,14.7,14.7,0,0,0-1.386-.981h0a11.486,11.486,0,0,0-1.444,1,11.728,11.728,0,0,0-1.394,1.24l-0.683.678-0.647.764A45.051,45.051,0,0,0,620.312,391.717Zm15.122-29.87a7.253,7.253,0,0,0-.268-0.843,6.994,6.994,0,0,0-.391-0.773,5.078,5.078,0,0,0-.481-0.712,6.276,6.276,0,0,0-.576-0.633,5.323,5.323,0,0,0-.664-0.542,6.3,6.3,0,0,0-.731-0.456,6.983,6.983,0,0,0-3.045-.727h-0.015a6.742,6.742,0,0,0-2.519.482,6.084,6.084,0,0,0-3.4,3.454,7.153,7.153,0,0,0-.475,2.569v0.015a6.223,6.223,0,0,0,.6,2.569,10.571,10.571,0,0,0,1.738,2.609,15,15,0,0,0,2.551,2.267,15.307,15.307,0,0,0,1.452.908c0.02,0.012.041,0.02,0.061,0.031a15.142,15.142,0,0,0,4.064-3.206,10.59,10.59,0,0,0,1.739-2.608c0.087-.221.175-0.441,0.262-0.661,0.056-.219.12-0.435,0.188-0.65,0.029-.214.066-0.425,0.111-0.636,0-.209.016-0.415,0.037-0.623v-0.015A7.653,7.653,0,0,0,635.434,361.847ZM560.019,448.6a2.455,2.455,0,0,1,2.6,2.461,5.2,5.2,0,0,1-.228,1.094l-8.524,25.709a3.837,3.837,0,0,1-7.294,0l-6.837-19.6-6.7,19.6a3.806,3.806,0,0,1-7.248,0l-8.661-25.8a3.555,3.555,0,0,1-.182-0.957,2.561,2.561,0,0,1,2.644-2.507,2.471,2.471,0,0,1,2.507,1.869l7.339,23.43,7.612-23.339a2.64,2.64,0,0,1,2.736-1.96,2.509,2.509,0,0,1,2.689,1.96l7.795,23.339,7.2-23.567A2.54,2.54,0,0,1,560.019,448.6Zm-35.346,36.559a4.6,4.6,0,0,1,3.141,1.154,5,5,0,0,1,1.545,3.735v6.078a0.951,0.951,0,0,1-1.9,0v-3.039h-5.569v3.039a0.942,0.942,0,0,1-.95.916,0.92,0.92,0,0,1-.951-0.916v-6.078a5.065,5.065,0,0,1,1.545-3.735A4.57,4.57,0,0,1,524.673,485.154Zm-2.784,6.248h5.569v-1.274a3.46,3.46,0,0,0-.781-2.41,2.659,2.659,0,0,0-2-.8,2.715,2.715,0,0,0-1.986.8,3.5,3.5,0,0,0-.8,2.41V491.4Zm9.679-2.259h0.645v-1.2a0.856,0.856,0,0,1,.866-0.85,0.871,0.871,0,0,1,.883.85v1.2H535.9a0.689,0.689,0,0,1,0,1.376h-1.935v3.7c0,0.9.305,1.358,1.086,1.358,0.747,0,.985-0.56,1.494-0.56a0.641,0.641,0,0,1,.662.7,1.329,1.329,0,0,1-.934,1,3.859,3.859,0,0,1-1.544.322,2.343,2.343,0,0,1-2.513-2.664v-3.854h-0.645A0.689,0.689,0,0,1,531.568,489.143Zm12.089-3.971a0.844,0.844,0,0,1,.866.848v10.169a0.866,0.866,0,0,1-1.732,0V486.02A0.855,0.855,0,0,1,543.657,485.172Zm6.878,3.819a4.315,4.315,0,0,1,2.936,1.12,3.924,3.924,0,0,1,1.188,2.9,3.845,3.845,0,0,1-1.188,2.92,4.46,4.46,0,0,1-5.873,0,3.854,3.854,0,0,1-1.206-2.92,3.938,3.938,0,0,1,1.206-2.9A4.283,4.283,0,0,1,550.535,488.991Zm-1.749,5.84a2.4,2.4,0,0,0,3.48,0,2.769,2.769,0,0,0,0-3.633,2.4,2.4,0,0,0-3.48,0A2.823,2.823,0,0,0,548.786,494.831Zm8.636-5.84a0.845,0.845,0,0,1,.866.849v0.339a2.957,2.957,0,0,1,2.512-1.188,3.273,3.273,0,0,1,2.241.729,3.2,3.2,0,0,1,.9,2.513v3.956a0.875,0.875,0,0,1-1.749,0v-3.531a2.455,2.455,0,0,0-.492-1.732,1.657,1.657,0,0,0-1.239-.441A1.929,1.929,0,0,0,558.7,491.5a3.786,3.786,0,0,0-.407,1.8v2.886a0.866,0.866,0,0,1-.866.848,0.855,0.855,0,0,1-.866-0.848V489.84A0.855,0.855,0,0,1,557.422,488.991Zm6.561-27.132a11.1,11.1,0,0,1,14.952-.136,9.4,9.4,0,0,1,2.507,6.655,2.361,2.361,0,0,1-2.371,2.6H566.034a6.475,6.475,0,0,0,1.55,3.784,6.25,6.25,0,0,0,4.923,2.051,9.968,9.968,0,0,0,4.148-.911,5.955,5.955,0,0,1,2.188-.866,1.833,1.833,0,0,1,1.732,1.914c0,1-.729,1.686-2.142,2.325a15.907,15.907,0,0,1-6.245,1.23,10.873,10.873,0,0,1-8.205-3.19,11.22,11.22,0,0,1-2.872-7.886A10.818,10.818,0,0,1,563.983,461.859Zm12.9,5.927a5.6,5.6,0,0,0-1.322-3.6,5.343,5.343,0,0,0-3.92-1.55,5.653,5.653,0,0,0-4.239,1.642,6.284,6.284,0,0,0-1.368,3.51h10.849ZM569.37,497a3.356,3.356,0,0,1-2.513-1.018A4.255,4.255,0,0,1,565.771,493a4.457,4.457,0,0,1,1.018-2.937,3.362,3.362,0,0,1,2.564-1.069,4.186,4.186,0,0,1,2.139.628,0.876,0.876,0,0,1,1.715.221v7.283a3.639,3.639,0,0,1-1.07,2.868,3.681,3.681,0,0,1-2.614.866c-1.053,0-3.175-.39-3.175-1.544a0.744,0.744,0,0,1,.73-0.765,1.712,1.712,0,0,1,.985.459,2.6,2.6,0,0,0,1.426.407,1.921,1.921,0,0,0,1.493-.543,2.033,2.033,0,0,0,.476-1.443v-1.036A3.261,3.261,0,0,1,569.37,497Zm2.088-5.805a2.929,2.929,0,0,0-1.851-.713,1.862,1.862,0,0,0-1.477.645,3.419,3.419,0,0,0,0,3.8,1.78,1.78,0,0,0,1.443.629,2.831,2.831,0,0,0,1.885-.629V491.2Zm9.458-6.026a0.844,0.844,0,0,1,.866.848v10.169a0.866,0.866,0,0,1-1.732,0V486.02A0.855,0.855,0,0,1,580.916,485.172Zm4.175,7.554a11.486,11.486,0,0,1,3.26-.594v-0.2a1.7,1.7,0,0,0-.323-1.155,1.412,1.412,0,0,0-1.137-.441,3.566,3.566,0,0,0-1.443.322,2.18,2.18,0,0,1-.832.272,0.617,0.617,0,0,1-.628-0.628,1.116,1.116,0,0,1,.9-0.883,5.932,5.932,0,0,1,2.19-.424,3.091,3.091,0,0,1,2.359.865,2.931,2.931,0,0,1,.645,2.072v4.261a0.881,0.881,0,0,1-1.663.373,4.308,4.308,0,0,1-2.156.475,2.424,2.424,0,0,1-2.665-2.325A2.077,2.077,0,0,1,585.091,492.726Zm1.715,3.038a3.1,3.1,0,0,0,1.545-.441v-1.986c-1.834.1-3.09,0.441-3.09,1.341A1.306,1.306,0,0,0,586.806,495.764Zm5.663-.7c0.628,0,.9.612,2.088,0.612,0.781,0,1.307-.272,1.307-0.866a1.139,1.139,0,0,0-.882-0.985c-0.476-.221-1.172-0.39-1.749-0.662a2.023,2.023,0,0,1-1.273-1.987c0-1.357,1.052-2.189,2.936-2.189,1.359,0,2.615.271,2.615,1.069a0.686,0.686,0,0,1-.679.7c-0.543,0-1.036-.34-1.834-0.34-0.73,0-1.205.22-1.205,0.73a1.033,1.033,0,0,0,.8.882c0.526,0.221,1.188.408,1.714,0.662a2.046,2.046,0,0,1,1.393,1.97c0,1.409-1.172,2.376-3.022,2.376-1.121,0-2.886-.254-2.886-1.289A0.681,0.681,0,0,1,592.469,495.068Zm-2.55-16.935a2.487,2.487,0,0,1-4.968,0V451.7a3.2,3.2,0,0,1,5.971-1.5l9.8,16.547,9.892-16.547a3.2,3.2,0,0,1,5.971,1.5v26.438a2.487,2.487,0,0,1-4.969,0V457.849l-8.342,13.811a2.8,2.8,0,0,1-5.014,0l-8.342-13.811v20.284Zm9.413,11.01h0.645v-1.2a0.855,0.855,0,0,1,.866-0.85,0.871,0.871,0,0,1,.883.85v1.2h1.935a0.689,0.689,0,0,1,0,1.376h-1.935v3.7c0,0.9.3,1.358,1.086,1.358,0.747,0,.985-0.56,1.494-0.56a0.641,0.641,0,0,1,.662.7,1.331,1.331,0,0,1-.934,1,3.861,3.861,0,0,1-1.545.322,2.343,2.343,0,0,1-2.512-2.664v-3.854h-0.645A0.689,0.689,0,0,1,599.332,489.143Zm7,6.791a1.015,1.015,0,0,1,1.1-1.035,1.317,1.317,0,0,1,1.291,1.511,2.492,2.492,0,0,1-2.02,2.376,0.312,0.312,0,0,1-.323-0.322c0-.459.764-0.578,0.764-1.188C607.144,496.732,606.329,496.834,606.329,495.934Zm9.576-6.943a0.859,0.859,0,0,1,.883.849v3.649a2.766,2.766,0,0,0,.237,1.342,1.347,1.347,0,0,0,1.308.679,1.382,1.382,0,0,0,1.391-.815,2.875,2.875,0,0,0,.222-1.239V489.84a0.854,0.854,0,0,1,.865-0.849,0.845,0.845,0,0,1,.866.849v3.616a2.892,2.892,0,0,0,.22,1.239,1.4,1.4,0,0,0,1.41.815,1.365,1.365,0,0,0,1.29-.679,2.75,2.75,0,0,0,.254-1.342V489.84a0.83,0.83,0,0,1,.849-0.849,0.844,0.844,0,0,1,.866.849v3.717a4.12,4.12,0,0,1-.492,2.224,7.926,7.926,0,0,0-7.894,1.256,2.865,2.865,0,0,1-2.649-1.239,4.185,4.185,0,0,1-.492-2.241V489.84A0.855,0.855,0,0,1,615.905,488.991Zm16.385,0a3.77,3.77,0,0,1,2.733,1.052,3.5,3.5,0,0,1,.933,2.479,0.878,0.878,0,0,1-.882.967h-4.855a2.412,2.412,0,0,0,.577,1.41,2.327,2.327,0,0,0,1.833.763,3.7,3.7,0,0,0,1.545-.339,2.216,2.216,0,0,1,.815-0.323,0.683,0.683,0,0,1,.645.713,1.033,1.033,0,0,1-.8.866,5.909,5.909,0,0,1-2.325.458,4.051,4.051,0,0,1-3.057-1.188,4.181,4.181,0,0,1-1.069-2.937,4.032,4.032,0,0,1,1.069-2.818A3.806,3.806,0,0,1,632.29,488.991Zm1.969,3.31a2.091,2.091,0,0,0-.492-1.341,1.994,1.994,0,0,0-1.46-.577,2.107,2.107,0,0,0-1.579.611,2.334,2.334,0,0,0-.509,1.307h4.04Zm-11.612-14.988a11.22,11.22,0,0,1-2.871-7.886,10.817,10.817,0,0,1,2.871-7.568,11.1,11.1,0,0,1,14.952-.136,9.393,9.393,0,0,1,2.507,6.655,2.361,2.361,0,0,1-2.37,2.6H624.7a6.467,6.467,0,0,0,1.549,3.784,6.253,6.253,0,0,0,4.923,2.051,9.977,9.977,0,0,0,4.149-.911,5.942,5.942,0,0,1,2.188-.866,1.833,1.833,0,0,1,1.732,1.914c0,1-.729,1.686-2.143,2.325a15.9,15.9,0,0,1-6.245,1.23A10.876,10.876,0,0,1,622.647,477.313Zm12.9-9.527a5.6,5.6,0,0,0-1.322-3.6,5.341,5.341,0,0,0-3.92-1.55,5.653,5.653,0,0,0-4.239,1.642,6.283,6.283,0,0,0-1.367,3.51h10.848Zm7.609,21.222a0.844,0.844,0,0,1,.866.848v0.017a2.691,2.691,0,0,1,2.088-.865,3.019,3.019,0,0,1,1.6.407,2.267,2.267,0,0,1,.883.951,3.029,3.029,0,0,1,1.018-1,2.912,2.912,0,0,1,4.5,2.75v4.092a0.878,0.878,0,0,1-.866.849,0.856,0.856,0,0,1-.866-0.849v-3.651a2.507,2.507,0,0,0-.441-1.6,1.511,1.511,0,0,0-1.188-.475,1.489,1.489,0,0,0-1.307.695,3.433,3.433,0,0,0-.374,1.783v3.243a0.877,0.877,0,0,1-.865.849,0.855,0.855,0,0,1-.866-0.849v-3.651a2.507,2.507,0,0,0-.442-1.6,1.513,1.513,0,0,0-1.188-.475,1.464,1.464,0,0,0-1.307.746,3.835,3.835,0,0,0-.374,1.8v3.158a0.882,0.882,0,0,1-.866.866,0.859,0.859,0,0,1-.866-0.866v-6.333A0.845,0.845,0,0,1,643.156,489.008Zm16.674-.017a3.766,3.766,0,0,1,2.732,1.052,3.5,3.5,0,0,1,.934,2.479,0.878,0.878,0,0,1-.882.967h-4.856a2.419,2.419,0,0,0,.578,1.41,2.327,2.327,0,0,0,1.833.763,3.71,3.71,0,0,0,1.545-.339,2.216,2.216,0,0,1,.815-0.323,0.683,0.683,0,0,1,.645.713,1.033,1.033,0,0,1-.8.866,5.909,5.909,0,0,1-2.325.458,4.051,4.051,0,0,1-3.057-1.188,4.176,4.176,0,0,1-1.069-2.937,4.028,4.028,0,0,1,1.069-2.818A3.8,3.8,0,0,1,659.83,488.991Zm1.969,3.31a2.092,2.092,0,0,0-.493-1.341,1.99,1.99,0,0,0-1.459-.577,2.105,2.105,0,0,0-1.579.611,2.342,2.342,0,0,0-.51,1.307H661.8Zm12.139-3.158h0.645v-1.2a0.856,0.856,0,0,1,.866-0.85,0.87,0.87,0,0,1,.883.85v1.2h1.935a0.689,0.689,0,0,1,0,1.376h-1.935v3.7c0,0.9.306,1.358,1.086,1.358,0.748,0,.985-0.56,1.494-0.56a0.641,0.641,0,0,1,.662.7,1.329,1.329,0,0,1-.934,1,3.859,3.859,0,0,1-1.544.322,2.344,2.344,0,0,1-2.513-2.664v-3.854h-0.645A0.689,0.689,0,0,1,673.938,489.143Z" transform="translate(-516.938 -349.156)"/>
</svg>
