<svg xmlns="http://www.w3.org/2000/svg" width="21.5" height="21.531" viewBox="0 0 21.5 21.531">
  <defs>
    <style>
      .cls-1 {
        fill: #fff;
        fill-rule: evenodd;
        opacity: 0.75;
      }
    </style>
  </defs>
  <path id="ic" class="cls-1" d="M48.4,334.859A10.743,10.743,0,0,0,41.944,354.2h0a10.693,10.693,0,0,0,12.9,0h0q0.43-.324.825-0.687h0A10.741,10.741,0,0,0,48.4,334.859Zm0,3.565a3.594,3.594,0,1,1-3.594,3.594A3.6,3.6,0,0,1,48.4,338.424Zm0,16.543A8.719,8.719,0,0,1,42,352.122a6.458,6.458,0,0,1,12.75-.019A8.829,8.829,0,0,1,48.4,354.967Z" transform="translate(-37.656 -334.844)"/>
</svg>
