<svg xmlns="http://www.w3.org/2000/svg" width="23.25" height="22.062" viewBox="0 0 23.25 22.062">
  <defs>
    <style>
      .cls-1 {
        fill: #fff;
        fill-rule: evenodd;
        opacity: 0.75;
      }
    </style>
  </defs>
  <path id="ic" class="cls-1" d="M59.219,287.44a6.895,6.895,0,0,0-2.294-9.064,10.072,10.072,0,1,0-18.787,5.674l-1.3,4.03a0.786,0.786,0,0,0,.99.99l4.03-1.3a10.093,10.093,0,0,0,6.428,1.237l0.011,0.012a6.891,6.891,0,0,0,8.159,1.179l2.467,0.794a0.846,0.846,0,0,0,.266.042,0.864,0.864,0,0,0,.821-1.129ZM42.94,280.02a0.984,0.984,0,1,1,.984-0.984A0.984,0.984,0,0,1,42.94,280.02Zm3.934,0a0.984,0.984,0,1,1,.984-0.984A0.984,0.984,0,0,1,46.874,280.02Zm3.934-1.968a0.984,0.984,0,1,1-.984.984A0.984,0.984,0,0,1,50.808,278.052Zm6.983,9.442,0.608,1.887-1.886-.608a0.512,0.512,0,0,0-.427.054,5.509,5.509,0,0,1-6.127-.2,10.072,10.072,0,0,0,6.933-8.536,5.507,5.507,0,0,1,.954,6.977A0.508,0.508,0,0,0,57.792,287.494Z" transform="translate(-36.813 -268.969)"/>
</svg>
