<svg xmlns="http://www.w3.org/2000/svg" width="16.87" height="13.719" viewBox="0 0 16.87 13.719">
  <defs>
    <style>
      .cls-1 {
        fill: #fff;
        fill-rule: evenodd;
      }
    </style>
  </defs>
  <path id="Twitter" class="cls-1" d="M1260.1,424.46a7,7,0,0,1-2.2.842,3.47,3.47,0,0,0-6,2.369,3.438,3.438,0,0,0,.09.791,9.827,9.827,0,0,1-7.14-3.62,3.467,3.467,0,0,0,1.07,4.625,3.414,3.414,0,0,1-1.57-.434v0.045a3.468,3.468,0,0,0,2.78,3.4,3.4,3.4,0,0,1-.91.123,3.58,3.58,0,0,1-.65-0.061,3.466,3.466,0,0,0,3.23,2.4,6.941,6.941,0,0,1-4.3,1.485,7.313,7.313,0,0,1-.83-0.049,9.854,9.854,0,0,0,15.17-8.3c0-.148,0-0.3-0.01-0.447a6.927,6.927,0,0,0,1.73-1.794,6.883,6.883,0,0,1-1.99.544A3.457,3.457,0,0,0,1260.1,424.46Z" transform="translate(-1243.69 -424.219)"/>
</svg>
