<svg xmlns="http://www.w3.org/2000/svg" width="14.969" height="11.938" viewBox="0 0 14.969 11.938">
  <defs>
    <style>
      .cls-1 {
        fill: #ffffff;
        fill-rule: evenodd;
      }
    </style>
  </defs>
  <path id="ic" class="cls-1" d="M870.005,366.678a1.3,1.3,0,0,0,1.3,1.3h12.36a1.3,1.3,0,0,0,1.3-1.3V357.32a1.3,1.3,0,0,0-1.3-1.3H871.3a1.3,1.3,0,0,0-1.3,1.3v9.358Zm4.5-4.929-2.972-2.991a0.631,0.631,0,0,1,.893-0.893l4.742,4.748a0.5,0.5,0,0,0,.695,0l4.747-4.748a0.631,0.631,0,1,1,.893.893l-2.974,2.991,2.066,2.063a0.631,0.631,0,1,1-.893.893l-2.063-2.06s-0.929.945-1.1,1.114a1.461,1.461,0,0,1-2.052-.01c-0.172-.168-1.1-1.1-1.1-1.1l-2.06,2.06a0.631,0.631,0,1,1-.893-0.893Z" transform="translate(-870 -356.031)"/>
</svg>
