<svg xmlns="http://www.w3.org/2000/svg" width="19.875" height="19.87" viewBox="0 0 19.875 19.87">
  <defs>
    <style>
      .cls-1 {
        fill: #2d373d;
        fill-rule: evenodd;
      }
    </style>
  </defs>
  <path id="ic" class="cls-1" d="M521.089,3242.98a9.929,9.929,0,0,0-8.612,14.87l-1.28,3.98a0.774,0.774,0,0,0,.976.97l3.973-1.28A9.929,9.929,0,1,0,521.089,3242.98Zm0,18.31a8.36,8.36,0,0,1-4.435-1.27,0.777,0.777,0,0,0-.649-0.08l-2.867.92,0.923-2.87a0.755,0.755,0,0,0-.081-0.64A8.379,8.379,0,1,1,521.089,3261.29Zm0.969-8.38a0.97,0.97,0,1,1-.969-0.97A0.967,0.967,0,0,1,522.058,3252.91Zm3.879,0a0.97,0.97,0,1,1-.97-0.97A0.968,0.968,0,0,1,525.937,3252.91Zm-7.757,0a0.97,0.97,0,1,1-.97-0.97A0.967,0.967,0,0,1,518.18,3252.91Zm3.878,0a0.97,0.97,0,1,1-.969-0.97A0.967,0.967,0,0,1,522.058,3252.91Zm3.879,0a0.97,0.97,0,1,1-.97-0.97A0.968,0.968,0,0,1,525.937,3252.91Zm-7.757,0a0.97,0.97,0,1,1-.97-0.97A0.967,0.967,0,0,1,518.18,3252.91Z" transform="translate(-511.156 -3242.97)"/>
</svg>
