<svg xmlns="http://www.w3.org/2000/svg" width="21.094" height="17.812" viewBox="0 0 21.094 17.812">
  <defs>
    <style>
      .cls-1 {
        fill: #fff;
        fill-rule: evenodd;
      }
    </style>
  </defs>
  <path id="ic" class="cls-1" d="M41.015,152.515a0.434,0.434,0,0,0,.438.467l4.562,0.007-0.005-4.3a0.615,0.615,0,0,1,.617-0.712h3.611a0.678,0.678,0,0,1,.767.712l0,4.287h4.448a0.54,0.54,0,0,0,.553-0.582v-7.251l-7.274-6.47-7.722,6.47v7.373Zm-3.007-7.976s0.656,1.209,2.085,0l8.708-7.228,8.011,7.183c1.655,1.194,2.275,0,2.275,0L48.8,135.176ZM56.466,137H54.212L54.2,139.033l2.262,2.126V137Z" transform="translate(-38 -135.188)"/>
</svg>
