<svg xmlns="http://www.w3.org/2000/svg" width="13.69" height="13.688" viewBox="0 0 13.69 13.688">
  <defs>
    <style>
      .cls-1 {
        fill: #2f7a99;
        fill-rule: evenodd;
      }
    </style>
  </defs>
  <path id="ic" class="cls-1" d="M1449.65,562.514a6.851,6.851,0,0,0-5.94,10.245l-0.88,2.737a0.54,0.54,0,0,0,.13.541,0.531,0.531,0,0,0,.54.131l2.74-.881A6.841,6.841,0,1,0,1449.65,562.514Zm-2.68,7.508a0.668,0.668,0,1,1,.67-0.668A0.668,0.668,0,0,1,1446.97,570.022Zm2.68,0a0.668,0.668,0,1,1,0-1.336A0.668,0.668,0,0,1,1449.65,570.022Zm2.67,0a0.668,0.668,0,1,1,.67-0.668A0.67,0.67,0,0,1,1452.32,570.022Z" transform="translate(-1442.81 -562.5)"/>
</svg>
