<svg xmlns="http://www.w3.org/2000/svg" width="12.032" height="11.594" viewBox="0 0 12.032 11.594">
  <defs>
    <style>
      .cls-1 {
        fill: #ff4160;
        fill-rule: evenodd;
      }
    </style>
  </defs>
  <path id="ic" class="cls-1" d="M894.049,565.67a3.7,3.7,0,0,0-2.471-.916c-0.891,0-1.734.918-2.4,1.463-0.666-.548-1.509-1.467-2.4-1.467a3.7,3.7,0,0,0-2.474.919,3.508,3.508,0,0,0-1.146,2.663c0,2.122,1.909,3.987,4.324,6.347,0.325,0.317.66,0.644,1,.981l0.7,0.689,0.694-.689c0.339-.337.675-0.664,1-0.981,2.416-2.36,4.324-4.225,4.324-6.347A3.5,3.5,0,0,0,894.049,565.67Z" transform="translate(-883.156 -564.75)"/>
</svg>
