<svg xmlns="http://www.w3.org/2000/svg" width="31.72" height="30.124" viewBox="0 0 31.72 30.124">
  <defs>
    <style>
      .cls-1 {
        fill: #fff;
        fill-rule: evenodd;
      }
    </style>
  </defs>
  <path id="ic" class="cls-1" d="M1545.14,780.15a9.416,9.416,0,0,0-1.6-11.131,9.192,9.192,0,0,0-1.53-1.234,13.739,13.739,0,1,0-25.62,7.74l-1.77,5.5a1.05,1.05,0,0,0,.26,1.089,1.075,1.075,0,0,0,1.09.263l5.49-1.771a13.715,13.715,0,0,0,6.84,1.822,13.9,13.9,0,0,0,1.93-.135c0.01,0,.01.011,0.02,0.016a9.4,9.4,0,0,0,11.13,1.609l3.36,1.083a1.219,1.219,0,0,0,.37.057,1.171,1.171,0,0,0,.83-0.346,1.2,1.2,0,0,0,.29-1.195Zm-22.2-10.123a1.342,1.342,0,1,1,1.34-1.342A1.341,1.341,0,0,1,1522.94,770.027Zm5.36,0a1.342,1.342,0,1,1,1.35-1.342A1.341,1.341,0,0,1,1528.3,770.027Zm5.37-2.684a1.342,1.342,0,1,1-1.34,1.342A1.341,1.341,0,0,1,1533.67,767.343Zm9.53,12.881,0.83,2.573-2.58-.828a0.694,0.694,0,0,0-.58.072,7.513,7.513,0,0,1-8.36-.272,13.734,13.734,0,0,0,9.46-11.645,7.51,7.51,0,0,1,1.3,9.518A0.7,0.7,0,0,0,1543.2,780.224Z" transform="translate(-1514.56 -754.938)"/>
</svg>
